<?xml version="1.0" encoding="utf-8"?><!-- Uploaded to: SVG Repo, www.svgrepo.com, Generator: SVG Repo Mixer Tools -->
<svg fill="#E72D2D" width="800px" height="800px" viewBox="0 0 24 24" id="clipboard-3" data-name="Flat Color" xmlns="http://www.w3.org/2000/svg" class="icon flat-color"><rect id="primary" x="5" y="5" width="14" height="17" rx="2" style="fill: rgb(f, f, f);"></rect><path id="secondary" d="M15,18H9a1,1,0,0,1,0-2h6a1,1,0,0,1,0,2Zm1-5a1,1,0,0,0-1-1H9a1,1,0,0,0,0,2h6A1,1,0,0,0,16,13ZM14,4a2,2,0,0,0-4,0H9A1,1,0,0,0,8,5V7A1,1,0,0,0,9,8h6a1,1,0,0,0,1-1V5a1,1,0,0,0-1-1Z" style="fill: #1A1C48;"></path></svg>